<svg width="18" height="13" viewBox="0 0 18 13" fill="none" xmlns="http://www.w3.org/2000/svg">
<g clip-path="url(#clip0_9114_109637)">
<path d="M0.958845 0.835083H16.6005C17.1292 0.837916 17.5593 1.26717 17.5593 1.79135V11.9887C17.5593 12.5143 17.1249 12.9449 16.5947 12.9449H0.958845C0.431552 12.9421 0 12.5129 0 11.9887V1.79135C0 1.26717 0.430123 0.837916 0.958845 0.835083Z" fill="#FF9933"/>
<path d="M0 4.87123H17.5593V8.9088H0V4.87123Z" fill="white"/>
<path d="M0 8.9088H17.5593V11.9887C17.5593 12.5143 17.1249 12.9449 16.5947 12.9449H0.958845C0.431552 12.9421 0 12.5129 0 11.9887V8.9088Z" fill="#128807"/>
<path d="M10.4087 6.89001C10.4087 5.9975 9.67993 5.27499 8.77967 5.27499C7.87941 5.27499 7.15063 5.9975 7.15063 6.89001C7.15063 7.78111 7.87941 8.50504 8.77967 8.50504C9.67993 8.50504 10.4087 7.78253 10.4087 6.89001Z" fill="#000088"/>
<path d="M10.2044 6.89002C10.2044 6.10942 9.56704 5.47758 8.77967 5.47758C7.9923 5.47758 7.35498 6.10942 7.35498 6.89002C7.35498 7.67061 7.9923 8.30246 8.77967 8.30246C9.56704 8.30246 10.2044 7.67061 10.2044 6.89002Z" fill="white"/>
<path d="M9.0641 6.89001C9.0641 6.73418 8.93692 6.60667 8.77973 6.60667C8.62254 6.60667 8.49536 6.73276 8.49536 6.89001C8.49536 7.04585 8.62254 7.17193 8.77973 7.17193C8.93692 7.17193 9.0641 7.04585 9.0641 6.89001Z" fill="#000088"/>
<path d="M10.263 7.0841C10.2688 7.04585 10.2402 7.01043 10.2016 7.00477C10.163 6.9991 10.1273 7.02743 10.1216 7.06568C10.1159 7.10393 10.1444 7.13935 10.183 7.14502C10.223 7.14927 10.2588 7.12235 10.263 7.0841Z" fill="#000088"/>
<path d="M8.77954 8.30245L8.82813 7.45527L8.77954 7.05151L8.73096 7.45527L8.77954 8.30245Z" fill="#000088"/>
<path d="M10.1615 7.45811C10.1772 7.42269 10.1587 7.38019 10.1229 7.36602C10.0872 7.35044 10.0443 7.36886 10.03 7.40428C10.0143 7.43969 10.0329 7.48219 10.0686 7.49636C10.1058 7.51053 10.1472 7.49353 10.1615 7.45811Z" fill="black"/>
<path d="M8.41089 8.25429L8.67954 7.44819L8.73813 7.04585L8.58522 7.42411L8.41089 8.25429Z" fill="black"/>
<path d="M9.96705 7.79386C9.99134 7.7627 9.98562 7.71878 9.95419 7.6947C9.92275 7.67061 9.87845 7.67628 9.85416 7.70745C9.82986 7.73861 9.83558 7.78253 9.86702 7.80661C9.89846 7.8307 9.94275 7.82361 9.96705 7.79386Z" fill="black"/>
<path d="M8.06665 8.11403L8.53678 7.40427L8.69826 7.03027L8.45248 7.35469L8.06665 8.11403Z" fill="black"/>
<path d="M9.69003 8.06728C9.72146 8.0432 9.72718 7.99928 9.70289 7.96811C9.67859 7.93695 9.6343 7.93128 9.60286 7.95536C9.57142 7.97945 9.56571 8.02336 9.59 8.05453C9.61429 8.08428 9.66002 8.09136 9.69003 8.06728Z" fill="black"/>
<path d="M7.77222 7.88878L8.41097 7.32352L8.6639 7.00477L8.34238 7.25552L7.77222 7.88878Z" fill="black"/>
<path d="M9.35266 8.26137C9.38839 8.24578 9.40696 8.2047 9.39125 8.16928C9.37553 8.13386 9.33409 8.11545 9.29836 8.13103C9.26264 8.1452 9.24406 8.1877 9.25978 8.22312C9.27407 8.25853 9.31551 8.27553 9.35266 8.26137Z" fill="black"/>
<path d="M7.54492 7.59694L8.31085 7.21443L8.63809 6.97076L8.26084 7.13085L7.54492 7.59694Z" fill="black"/>
<path d="M8.97549 8.36054C9.01407 8.35488 9.04122 8.31946 9.03693 8.28121C9.03122 8.24296 8.99549 8.21604 8.95691 8.22029C8.91833 8.22596 8.89118 8.26137 8.89546 8.29962C8.89975 8.33929 8.93548 8.36621 8.97549 8.36054Z" fill="black"/>
<path d="M7.40356 7.25552L8.24238 7.08269L8.62248 6.93252L8.21665 6.98919L7.40356 7.25552Z" fill="black"/>
<path d="M8.58386 8.36054C8.62245 8.36621 8.65817 8.33787 8.66389 8.29962C8.6696 8.26137 8.64102 8.22596 8.60244 8.22029C8.56386 8.21462 8.52813 8.24296 8.52242 8.28121C8.51813 8.32087 8.54528 8.35629 8.58386 8.36054Z" fill="black"/>
<path d="M7.35498 6.89002L8.20951 6.93819L8.61677 6.89002L8.20951 6.84185L7.35498 6.89002Z" fill="black"/>
<path d="M8.2067 8.26137C8.24243 8.27695 8.2853 8.25853 8.29959 8.22312C8.31388 8.1877 8.29673 8.1452 8.261 8.13103C8.22528 8.11545 8.18241 8.13386 8.16812 8.16928C8.15383 8.2047 8.17098 8.24578 8.2067 8.26137Z" fill="black"/>
<path d="M7.40356 6.52451L8.21665 6.79084L8.62248 6.84893L8.24238 6.69734L7.40356 6.52451Z" fill="black"/>
<path d="M7.86793 8.06728C7.89937 8.09136 7.94367 8.0857 7.96796 8.05453C7.99225 8.02336 7.98654 7.97945 7.9551 7.95536C7.92366 7.93128 7.87936 7.93695 7.85507 7.96811C7.83221 7.99928 7.83792 8.0432 7.86793 8.06728Z" fill="black"/>
<path d="M7.54492 6.18308L8.26084 6.64917L8.63809 6.80926L8.31085 6.56559L7.54492 6.18308Z" fill="black"/>
<path d="M7.59225 7.79386C7.61655 7.82503 7.66084 7.8307 7.69228 7.80661C7.72372 7.78253 7.72944 7.73861 7.70514 7.70745C7.68085 7.67628 7.63655 7.67061 7.60511 7.6947C7.57511 7.71736 7.56796 7.7627 7.59225 7.79386Z" fill="black"/>
<path d="M7.77222 5.89125L8.34238 6.52451L8.6639 6.77668L8.41097 6.45651L7.77222 5.89125Z" fill="black"/>
<path d="M7.39639 7.45811C7.41211 7.49353 7.45355 7.51194 7.48928 7.49636C7.525 7.48078 7.54358 7.43969 7.52786 7.40428C7.51214 7.36886 7.4707 7.35044 7.43497 7.36602C7.39925 7.38019 7.3821 7.42128 7.39639 7.45811Z" fill="black"/>
<path d="M8.06665 5.66599L8.45248 6.42534L8.69826 6.74976L8.53678 6.37717L8.06665 5.66599Z" fill="black"/>
<path d="M7.29641 7.0841C7.30213 7.12235 7.33785 7.14927 7.37644 7.14502C7.41502 7.13935 7.44217 7.10394 7.43788 7.06568C7.43217 7.02743 7.39644 7.00052 7.35786 7.00477C7.31785 7.00902 7.2907 7.04443 7.29641 7.0841Z" fill="black"/>
<path d="M8.41089 5.52574L8.58522 6.35734L8.73813 6.73418L8.67954 6.33184L8.41089 5.52574Z" fill="black"/>
<path d="M7.29638 6.69593C7.29067 6.73418 7.31925 6.76959 7.35783 6.77526C7.39641 6.78093 7.43214 6.75259 7.43785 6.71434C7.44357 6.67609 7.41499 6.64068 7.37641 6.63501C7.33639 6.63076 7.30067 6.65768 7.29638 6.69593Z" fill="black"/>
<path d="M8.77954 5.47758L8.73096 6.32476L8.77954 6.72851L8.82813 6.32476L8.77954 5.47758Z" fill="black"/>
<path d="M7.39772 6.32192C7.382 6.35734 7.40058 6.39984 7.4363 6.41401C7.47203 6.42817 7.5149 6.41117 7.52919 6.37575C7.5449 6.34034 7.52633 6.29784 7.4906 6.28367C7.45345 6.2695 7.41201 6.2865 7.39772 6.32192Z" fill="black"/>
<path d="M9.14828 5.52574L8.87963 6.33184L8.82104 6.73418L8.97395 6.35734L9.14828 5.52574Z" fill="black"/>
<path d="M7.59219 5.98758C7.5679 6.01875 7.57362 6.06267 7.60506 6.08675C7.63649 6.11083 7.68079 6.10517 7.70508 6.074C7.72938 6.04283 7.72366 5.99892 7.69222 5.97483C7.66079 5.95075 7.61649 5.95642 7.59219 5.98758Z" fill="black"/>
<path d="M9.49269 5.66599L9.02256 6.37717L8.86108 6.74976L9.10687 6.42534L9.49269 5.66599Z" fill="black"/>
<path d="M7.86946 5.71275C7.83802 5.73683 7.83231 5.78075 7.8566 5.81192C7.88089 5.84308 7.92519 5.84875 7.95663 5.82467C7.98807 5.80058 7.99378 5.75667 7.96949 5.7255C7.9452 5.69433 7.89947 5.69008 7.86946 5.71275Z" fill="black"/>
<path d="M9.78719 5.89125L9.14844 6.45651L8.89551 6.77668L9.21703 6.52451L9.78719 5.89125Z" fill="black"/>
<path d="M8.2067 5.52008C8.17098 5.53566 8.15383 5.57674 8.16812 5.61216C8.18384 5.64758 8.22528 5.66599 8.261 5.65041C8.29673 5.63483 8.31531 5.59374 8.29959 5.55833C8.2853 5.52149 8.24386 5.50449 8.2067 5.52008Z" fill="black"/>
<path d="M10.0143 6.18308L9.24838 6.56559L8.92114 6.80926L9.29839 6.64917L10.0143 6.18308Z" fill="black"/>
<path d="M8.58386 5.41949C8.54528 5.42516 8.51813 5.46058 8.52242 5.49883C8.52813 5.53708 8.56386 5.56399 8.60244 5.55974C8.64102 5.55408 8.6696 5.51866 8.66389 5.48041C8.6596 5.44216 8.62388 5.41383 8.58386 5.41949Z" fill="black"/>
<path d="M10.1557 6.52451L9.31688 6.69734L8.93677 6.84893L9.3426 6.79084L10.1557 6.52451Z" fill="black"/>
<path d="M8.97553 5.41949C8.93695 5.41383 8.90122 5.44216 8.8955 5.48041C8.88979 5.51866 8.91837 5.55408 8.95695 5.55974C8.99553 5.56541 9.03126 5.53708 9.03697 5.49883C9.04126 5.46058 9.01411 5.42374 8.97553 5.41949Z" fill="black"/>
<path d="M10.2044 6.89002L9.34989 6.84185L8.94263 6.89002L9.34989 6.93819L10.2044 6.89002Z" fill="black"/>
<path d="M9.35266 5.52008C9.31694 5.50449 9.27407 5.52291 9.25978 5.55833C9.24406 5.59375 9.26264 5.63625 9.29836 5.65041C9.33409 5.66458 9.37696 5.64758 9.39125 5.61216C9.40554 5.57533 9.38839 5.53424 9.35266 5.52008Z" fill="black"/>
<path d="M10.1557 7.25552L9.3426 6.98919L8.93677 6.93252L9.31688 7.08269L10.1557 7.25552Z" fill="black"/>
<path d="M9.69003 5.71275C9.65859 5.68866 9.61429 5.69433 9.59 5.7255C9.56571 5.75666 9.57142 5.80058 9.60286 5.82467C9.6343 5.84875 9.67859 5.84308 9.70289 5.81192C9.72718 5.78075 9.72146 5.73683 9.69003 5.71275Z" fill="black"/>
<path d="M10.0143 7.59694L9.29839 7.13085L8.92114 6.97076L9.24838 7.21443L10.0143 7.59694Z" fill="black"/>
<path d="M9.96705 5.98758C9.94275 5.95642 9.89846 5.95075 9.86702 5.97483C9.83558 5.99892 9.82986 6.04283 9.85416 6.074C9.87845 6.10517 9.92275 6.11083 9.95419 6.08675C9.9842 6.06267 9.99134 6.01733 9.96705 5.98758Z" fill="black"/>
<path d="M9.78719 7.88878L9.21703 7.25552L8.89551 7.00477L9.14844 7.32352L9.78719 7.88878Z" fill="black"/>
<path d="M10.163 6.32192C10.1473 6.28651 10.1058 6.26809 10.0701 6.28367C10.0344 6.29926 10.0158 6.34034 10.0315 6.37576C10.0472 6.41118 10.0887 6.42818 10.1244 6.41401C10.1601 6.39984 10.1773 6.35876 10.163 6.32192Z" fill="black"/>
<path d="M9.49269 8.11403L9.10687 7.35469L8.86108 7.03027L9.02256 7.40427L9.49269 8.11403Z" fill="black"/>
<path d="M10.263 6.69593C10.2573 6.65768 10.2216 6.63076 10.183 6.63501C10.1444 6.64068 10.1173 6.67609 10.1215 6.71434C10.1273 6.75259 10.163 6.77951 10.2016 6.77526C10.2416 6.77101 10.2687 6.73559 10.263 6.69593Z" fill="black"/>
<path d="M9.14828 8.25429L8.97395 7.42411L8.82104 7.04585L8.87963 7.44819L9.14828 8.25429Z" fill="black"/>
</g>
<defs>
<clipPath id="clip0_9114_109637">
<rect width="17.5593" height="12.1099" fill="white" transform="translate(0 0.835083)"/>
</clipPath>
</defs>
</svg>
