<svg width="18" height="13" viewBox="0 0 18 13" fill="none" xmlns="http://www.w3.org/2000/svg">
<path d="M0.963891 0.782188H16.5929C17.1242 0.782188 17.5568 1.21483 17.5568 1.74608V12.0308C17.5568 12.562 17.1242 12.9947 16.5929 12.9947H0.963891C0.432638 12.9978 0 12.5652 0 12.0339V1.74608C0 1.21483 0.432638 0.782188 0.963891 0.782188Z" fill="#B22234"/>
<path d="M0.00636232 1.65064H17.5568C17.56 1.68245 17.5632 1.71427 17.5632 1.74926V2.68452H0V1.74608C0 1.71427 0.00318116 1.68245 0.00636232 1.65064ZM17.56 3.54025V4.57095H0V3.54025H17.56ZM17.56 5.42986V6.46056H0V5.42986H17.56ZM17.56 7.31947V8.35016H0V7.31947H17.56ZM17.56 9.20908V10.2398H0V9.20908H17.56ZM17.56 11.0987V12.0308C17.56 12.0626 17.5568 12.0976 17.5536 12.1294H0.00636232C0.00318116 12.1008 0 12.0658 0 12.0339V11.1019H17.56V11.0987Z" fill="white"/>
<path d="M6.61681 0.782188V7.36083H0V1.74608C0 1.21483 0.432638 0.782188 0.963891 0.782188H6.61681Z" fill="#3C3B6E"/>
<path d="M0.391209 1.692L0.610709 2.37595L0.0317383 1.95286H0.75068L0.168528 2.37595L0.391209 1.692Z" fill="white"/>
<path d="M0.391209 3.01537L0.610709 3.69931L0.0317383 3.27622H0.75068L0.168528 3.69931L0.391209 3.01537Z" fill="white"/>
<path d="M0.391209 4.33872L0.610709 5.02267L0.0317383 4.59958H0.75068L0.168528 5.02267L0.391209 4.33872Z" fill="white"/>
<path d="M0.391209 5.66209L0.610709 6.34604L0.0317383 5.92294H0.75068L0.168528 6.34604L0.391209 5.66209Z" fill="white"/>
<path d="M1.16758 1.03032L1.39026 1.71427L0.808105 1.29117H1.53023L0.944895 1.71427L1.16758 1.03032Z" fill="white"/>
<path d="M1.16758 2.35368L1.39026 3.03763L0.808105 2.61454H1.53023L0.944895 3.03763L1.16758 2.35368Z" fill="white"/>
<path d="M1.16758 3.67704L1.39026 4.36099L0.808105 3.9379H1.53023L0.944895 4.36099L1.16758 3.67704Z" fill="white"/>
<path d="M1.16758 5.0004L1.39026 5.68435L0.808105 5.26126H1.53023L0.944895 5.68435L1.16758 5.0004Z" fill="white"/>
<path d="M1.16758 6.32377L1.39026 7.00772L0.808105 6.58462H1.53023L0.944895 7.00772L1.16758 6.32377Z" fill="white"/>
<path d="M1.94687 1.692L2.16955 2.37595L1.5874 1.95286H2.30634L1.72419 2.37595L1.94687 1.692Z" fill="white"/>
<path d="M1.94687 3.01537L2.16955 3.69931L1.5874 3.27622H2.30634L1.72419 3.69931L1.94687 3.01537Z" fill="white"/>
<path d="M1.94687 4.33872L2.16955 5.02267L1.5874 4.59958H2.30634L1.72419 5.02267L1.94687 4.33872Z" fill="white"/>
<path d="M1.94687 5.66209L2.16955 6.34604L1.5874 5.92294H2.30634L1.72419 6.34604L1.94687 5.66209Z" fill="white"/>
<path d="M2.72617 1.03032L2.94567 1.71427L2.3667 1.29117H3.08564L2.50349 1.71427L2.72617 1.03032Z" fill="white"/>
<path d="M2.72617 2.35368L2.94567 3.03763L2.3667 2.61454H3.08564L2.50349 3.03763L2.72617 2.35368Z" fill="white"/>
<path d="M2.72617 3.67704L2.94567 4.36099L2.3667 3.9379H3.08564L2.50349 4.36099L2.72617 3.67704Z" fill="white"/>
<path d="M2.72617 5.0004L2.94567 5.68435L2.3667 5.26126H3.08564L2.50349 5.68435L2.72617 5.0004Z" fill="white"/>
<path d="M2.72617 6.32377L2.94567 7.00772L2.3667 6.58462H3.08564L2.50349 7.00772L2.72617 6.32377Z" fill="white"/>
<path d="M3.50254 1.692L3.72522 2.37595L3.14307 1.95286H3.86201L3.27986 2.37595L3.50254 1.692Z" fill="white"/>
<path d="M3.50254 3.01537L3.72522 3.69931L3.14307 3.27622H3.86201L3.27986 3.69931L3.50254 3.01537Z" fill="white"/>
<path d="M3.50254 4.33872L3.72522 5.02267L3.14307 4.59958H3.86201L3.27986 5.02267L3.50254 4.33872Z" fill="white"/>
<path d="M3.50254 5.66209L3.72522 6.34604L3.14307 5.92294H3.86201L3.27986 6.34604L3.50254 5.66209Z" fill="white"/>
<path d="M4.28183 1.03032L4.50452 1.71427L3.92236 1.29117H4.64131L4.05915 1.71427L4.28183 1.03032Z" fill="white"/>
<path d="M4.28183 2.35368L4.50452 3.03763L3.92236 2.61454H4.64131L4.05915 3.03763L4.28183 2.35368Z" fill="white"/>
<path d="M4.28183 3.67704L4.50452 4.36099L3.92236 3.9379H4.64131L4.05915 4.36099L4.28183 3.67704Z" fill="white"/>
<path d="M4.28183 5.0004L4.50452 5.68435L3.92236 5.26126H4.64131L4.05915 5.68435L4.28183 5.0004Z" fill="white"/>
<path d="M4.28183 6.32377L4.50452 7.00772L3.92236 6.58462H4.64131L4.05915 7.00772L4.28183 6.32377Z" fill="white"/>
<path d="M5.05796 1.692L5.28064 2.37595L4.69849 1.95286H5.41743L4.83846 2.37595L5.05796 1.692Z" fill="white"/>
<path d="M5.05796 3.01537L5.28064 3.69931L4.69849 3.27622H5.41743L4.83846 3.69931L5.05796 3.01537Z" fill="white"/>
<path d="M5.05796 4.33872L5.28064 5.02267L4.69849 4.59958H5.41743L4.83846 5.02267L5.05796 4.33872Z" fill="white"/>
<path d="M5.05796 5.66209L5.28064 6.34604L4.69849 5.92294H5.41743L4.83846 6.34604L5.05796 5.66209Z" fill="white"/>
<path d="M5.8375 1.03032L6.06018 1.71427L5.47803 1.29117H6.19697L5.61482 1.71427L5.8375 1.03032Z" fill="white"/>
<path d="M5.8375 2.35368L6.06018 3.03763L5.47803 2.61454H6.19697L5.61482 3.03763L5.8375 2.35368Z" fill="white"/>
<path d="M5.8375 3.67704L6.06018 4.36099L5.47803 3.9379H6.19697L5.61482 4.36099L5.8375 3.67704Z" fill="white"/>
<path d="M5.8375 5.0004L6.06018 5.68435L5.47803 5.26126H6.19697L5.61482 5.68435L5.8375 5.0004Z" fill="white"/>
<path d="M5.8375 6.32377L6.06018 7.00772L5.47803 6.58462H6.19697L5.61482 7.00772L5.8375 6.32377Z" fill="white"/>
</svg>
